<svg xmlns="http://www.w3.org/2000/svg" viewBox="0 0 500 500"><defs><style>.a{fill:#ff6961;}.b{fill:#e0dedc;}.c,.f{fill:#040000;}.c{stroke:#040000;stroke-miterlimit:10;stroke-width:1.83px;}.d{fill:#fff;}.e{fill:#b8937f;}</style></defs><rect class="a" width="500" height="500" rx="250"/><path class="b" d="M204.71,146.05S143.09,135.16,128,200.72c-15.92,68.83,36.72,63.52,36.72,63.52Z" transform="translate(0 0)"/><path class="c" d="M144.05,176.24c-11.56-.41-21.09,35.09-17.82,47.88,1.22,4.76,13.6,8.57,19-5C149.22,209.16,158.46,176.65,144.05,176.24Z" transform="translate(0 0)"/><path class="d" d="M135.48,186.85c-2.59-.82-5.44,6.12-6.39,8.57-2.45,7.21,2.85,6.94,6,2.72C136.7,196,138.06,187.8,135.48,186.85Z" transform="translate(0 0)"/><path class="b" d="M299.1,98.71c-31.15,2.32-103.5,38.77-68,128.13,12.38,31.28,142.27,14,143.91-73.45C375.54,116.94,326.58,96.67,299.1,98.71Z" transform="translate(0 0)"/><path class="c" d="M261,129.45c-29.11,2.59-36.18,43.8-25.3,53.46,6.12,5.44,27.34,11.69,38.76-25.85C278.15,145.09,271.76,128.36,261,129.45Z" transform="translate(0 0)"/><path class="d" d="M249.86,137.07c-4.21-1.22-12,9.52-9.65,14,.81,1.63,4.35,3.94,7.21,1.77C250.54,150.4,258.16,139.38,249.86,137.07Z" transform="translate(0 0)"/><path class="e" d="M213,236c-54-10.61-60.66,47.47-41.75,57.4,13.74,7.34,52.77-4.76,59.3-18.23S240.75,241.39,213,236Z" transform="translate(0 0)"/><path class="f" d="M176.83,230.92c-17,5.85-16.05,34.54-6.94,35.36,10.34,1,28.56-20,32.91-28.43C206.07,231.6,183.63,228.61,176.83,230.92Z" transform="translate(0 0)"/><path class="b" d="M183,290.08c-4.36,1.91-3.95,25.57,4.48,29.25,26.66,11.28,28.43-27.75,23.26-33.87C206.75,280.56,185.94,288.72,183,290.08Z" transform="translate(0 0)"/></svg>